<?xml version="1.0" encoding="iso-8859-1"?>
<!-- Uploaded to: SVG Repo, www.svgrepo.com, Generator: SVG Repo Mixer Tools -->
<svg fill="#000000" height="800px" width="800px" version="1.1" id="Layer_1" xmlns="http://www.w3.org/2000/svg" xmlns:xlink="http://www.w3.org/1999/xlink" 
	 viewBox="0 0 512 512" xml:space="preserve">
<g transform="translate(1 1)">
	<g>
		<path d="M476.867,220.867c-15.83,0-29.232,10.921-33.046,25.6h-23.274l28.16-28.16c3.413-3.413,3.413-8.533,0-11.947
			c-3.413-3.413-8.533-3.413-11.947,0l-40.107,40.107H383v-8.533c0-5.12-3.413-8.533-8.533-8.533s-8.533,3.413-8.533,8.533v8.533
			h-22.187l2.56-2.56c3.413-3.413,3.413-8.533,0-11.947s-8.533-3.413-11.947,0l-14.507,14.507H306.2v-13.653l11.947-11.947h30.72
			c5.12,0,8.533-3.413,8.533-8.533c0-5.12-3.413-8.533-8.533-8.533h-13.653l13.653-13.653l2.56,2.56
			c1.707,1.707,3.413,2.56,5.973,2.56s4.267-0.853,5.973-2.56c3.413-3.413,3.413-8.533,0-11.947l-2.56-2.56l8.533-8.533h56.32
			c5.12,0,8.533-3.413,8.533-8.533s-3.413-8.533-8.533-8.533h-39.253l21.866-21.866c5.101,3.043,11.048,4.8,17.387,4.8
			c18.773,0,34.133-15.36,34.133-34.133c0-18.773-15.36-34.133-34.133-34.133s-34.133,15.36-34.133,34.133
			c0,6.339,1.757,12.286,4.8,17.387l-21.866,21.866V101.4c0-5.12-3.413-8.533-8.533-8.533S357.4,96.28,357.4,101.4v56.32
			l-8.533,8.533l-2.56-2.56c-3.413-3.413-8.533-3.413-11.947,0c-3.413,3.413-3.413,8.533,0,11.947l2.56,2.56l-13.653,13.653V178.2
			c0-5.12-3.413-8.533-8.533-8.533s-8.533,3.413-8.533,8.533v30.72l-9.6,9.6l-33.067-19.84v-8.533l23.04-23.04
			c3.413-3.413,3.413-8.533,0-11.947c-3.413-3.413-8.533-3.413-11.947,0l-11.093,11.093v-22.187h8.533
			c5.12,0,8.533-3.413,8.533-8.533S277.187,127,272.067,127h-8.533v-13.653L303.64,73.24c3.413-3.413,3.413-8.533,0-11.947
			s-8.533-3.413-11.947,0l-28.16,28.16V66.179c14.679-3.814,25.6-17.216,25.6-33.046C289.133,14.36,273.773-1,255-1
			c-18.773,0-34.133,15.36-34.133,34.133c0,15.829,10.921,29.232,25.6,33.046v23.274l-28.16-28.16
			c-3.413-3.413-8.533-3.413-11.947,0s-3.413,8.533,0,11.947l40.107,40.107V127h-8.533c-5.12,0-8.533,3.413-8.533,8.533
			s3.413,8.533,8.533,8.533h8.533v22.187l-11.093-11.093c-3.413-3.413-8.533-3.413-11.947,0s-3.413,8.533,0,11.947l23.04,23.04
			v8.533L213.4,218.52l-9.6-9.6V178.2c0-5.12-3.413-8.533-8.533-8.533s-8.533,3.413-8.533,8.533v13.653L173.08,178.2l2.56-2.56
			c3.413-3.413,3.413-8.533,0-11.947s-8.533-3.413-11.947,0l-2.56,2.56l-8.533-8.533V101.4c0-5.12-3.413-8.533-8.533-8.533
			c-5.12,0-8.533,3.413-8.533,8.533v39.253l-21.866-21.866c3.043-5.101,4.8-11.048,4.8-17.387c0-18.773-15.36-34.133-34.133-34.133
			C65.56,67.267,50.2,82.627,50.2,101.4c0,18.773,15.36,34.133,34.133,34.133c6.339,0,12.286-1.757,17.387-4.8l21.866,21.866H84.333
			c-5.12,0-8.533,3.413-8.533,8.533s3.413,8.533,8.533,8.533h56.32l8.533,8.533l-2.56,2.56c-3.413,3.413-3.413,8.533,0,11.947
			c1.707,1.707,3.413,2.56,5.973,2.56c2.56,0,4.267-0.853,5.973-2.56l2.56-2.56l13.653,13.653h-13.653
			c-5.12,0-8.533,3.413-8.533,8.533c0,5.12,3.413,8.533,8.533,8.533h30.72l11.947,11.947v13.653h-13.653L175.64,231.96
			c-3.413-3.413-8.533-3.413-11.947,0s-3.413,8.533,0,11.947l2.56,2.56h-22.187v-8.533c0-5.12-3.413-8.533-8.533-8.533
			S127,232.813,127,237.933v8.533h-13.653L73.24,206.36c-3.413-3.413-8.533-3.413-11.947,0s-3.413,8.533,0,11.947l28.16,28.16
			H66.179c-3.814-14.679-17.216-25.6-33.046-25.6C14.36,220.867-1,236.227-1,255c0,18.773,15.36,34.133,34.133,34.133
			c15.83,0,29.232-10.921,33.046-25.6h23.274l-28.16,28.16c-3.413,3.413-3.413,8.533,0,11.947c1.707,1.707,3.413,2.56,5.973,2.56
			s4.267-0.853,5.973-2.56l40.107-40.107H127v8.533c0,5.12,3.413,8.533,8.533,8.533s8.533-3.413,8.533-8.533v-8.533h22.187
			l-2.56,2.56c-3.413,3.413-3.413,8.533,0,11.947c1.707,1.707,3.413,2.56,5.973,2.56s4.267-0.853,5.973-2.56l14.507-14.507H203.8
			v13.653l-11.947,11.947h-30.72c-5.12,0-8.533,3.413-8.533,8.533s3.413,8.533,8.533,8.533h13.653l-13.653,13.653l-2.56-2.56
			c-3.413-3.413-8.533-3.413-11.947,0s-3.413,8.533,0,11.947l2.56,2.56l-8.533,8.533h-56.32c-5.12,0-8.533,3.413-8.533,8.533
			s3.413,8.533,8.533,8.533h39.253l-21.866,21.866c-5.101-3.043-11.048-4.8-17.387-4.8c-18.773,0-34.133,15.36-34.133,34.133
			c0,18.773,15.36,34.133,34.133,34.133c18.773,0,34.133-15.36,34.133-34.133c0-6.339-1.757-12.286-4.8-17.387l21.866-21.866V408.6
			c0,5.12,3.413,8.533,8.533,8.533c5.12,0,8.533-3.413,8.533-8.533v-56.32l8.533-8.533l2.56,2.56c1.707,1.707,3.413,2.56,5.973,2.56
			s4.267-0.853,5.973-2.56c3.413-3.413,3.413-8.533,0-11.947l-2.56-2.56l13.653-13.653V331.8c0,5.12,3.413,8.533,8.533,8.533
			s8.533-3.413,8.533-8.533v-30.72l9.6-9.6l33.067,19.84v8.533l-23.04,23.04c-3.413,3.413-3.413,8.533,0,11.947
			s8.533,3.413,11.947,0l11.093-11.093v22.187h-8.533c-5.12,0-8.533,3.413-8.533,8.533s3.413,8.533,8.533,8.533h8.533v13.653
			L206.36,436.76c-3.413,3.413-3.413,8.533,0,11.947c3.413,3.413,8.533,3.413,11.947,0l28.16-28.16v23.274
			c-14.679,3.814-25.6,17.216-25.6,33.046C220.867,495.64,236.227,511,255,511c18.773,0,34.133-15.36,34.133-34.133
			c0-15.83-10.921-29.232-25.6-33.046v-23.274l28.16,28.16c1.707,1.707,3.413,2.56,5.973,2.56s4.267-0.853,5.973-2.56
			c3.413-3.413,3.413-8.533,0-11.947l-40.107-40.107V383h8.533c5.12,0,8.533-3.413,8.533-8.533s-3.413-8.533-8.533-8.533h-8.533
			v-22.187l11.093,11.093c1.707,1.707,3.413,2.56,5.973,2.56s4.267-0.853,5.973-2.56c3.413-3.413,3.413-8.533,0-11.947l-23.04-23.04
			v-8.533l33.067-19.84l9.6,9.6v30.72c0,5.12,3.413,8.533,8.533,8.533s8.533-3.413,8.533-8.533v-13.653L336.92,331.8l-2.56,2.56
			c-3.413,3.413-3.413,8.533,0,11.947c1.707,1.707,3.413,2.56,5.973,2.56s4.267-0.853,5.973-2.56l2.56-2.56l8.533,8.533v56.32
			c0,5.12,3.413,8.533,8.533,8.533s8.533-3.413,8.533-8.533v-39.253l21.866,21.866c-3.043,5.101-4.8,11.048-4.8,17.387
			c0,18.773,15.36,34.133,34.133,34.133S459.8,427.373,459.8,408.6c0-18.773-15.36-34.133-34.133-34.133
			c-6.339,0-12.286,1.757-17.387,4.8L386.413,357.4h39.253c5.12,0,8.533-3.413,8.533-8.533s-3.413-8.533-8.533-8.533h-56.32
			l-8.533-8.533l2.56-2.56c3.413-3.413,3.413-8.533,0-11.947s-8.533-3.413-11.947,0l-2.56,2.56L335.213,306.2h13.653
			c5.12,0,8.533-3.413,8.533-8.533s-3.413-8.533-8.533-8.533h-30.72L306.2,277.187v-13.653h13.653l14.507,14.507
			c1.707,1.707,3.413,2.56,5.973,2.56s4.267-0.853,5.973-2.56c3.413-3.413,3.413-8.533,0-11.947l-2.56-2.56h22.187v8.533
			c0,5.12,3.413,8.533,8.533,8.533s8.533-3.413,8.533-8.533v-8.533h13.653l40.107,40.107c1.707,1.707,3.413,2.56,5.973,2.56
			s4.267-0.853,5.973-2.56c3.413-3.413,3.413-8.533,0-11.947l-28.16-28.16h23.274c3.814,14.679,17.216,25.6,33.046,25.6
			C495.64,289.133,511,273.773,511,255C511,236.227,495.64,220.867,476.867,220.867z M425.667,84.333
			c9.387,0,17.067,7.68,17.067,17.067c0,9.387-7.68,17.067-17.067,17.067c-4.249,0-8.139-1.585-11.135-4.178
			c-0.247-0.324-0.512-0.642-0.812-0.942s-0.617-0.564-0.942-0.812c-2.594-2.996-4.178-6.886-4.178-11.135
			C408.6,92.013,416.28,84.333,425.667,84.333z M237.933,33.133c0-9.387,7.68-17.067,17.067-17.067s17.067,7.68,17.067,17.067
			c0,9.387-7.68,17.067-17.067,17.067S237.933,42.52,237.933,33.133z M67.267,101.4c0-9.387,7.68-17.067,17.067-17.067
			c9.387,0,17.067,7.68,17.067,17.067c0,4.249-1.585,8.139-4.178,11.135c-0.324,0.247-0.642,0.512-0.942,0.812
			s-0.564,0.617-0.812,0.942c-2.996,2.594-6.886,4.178-11.135,4.178C74.947,118.467,67.267,110.787,67.267,101.4z M33.133,272.067
			c-9.387,0-17.067-7.68-17.067-17.067s7.68-17.067,17.067-17.067c9.387,0,17.067,7.68,17.067,17.067S42.52,272.067,33.133,272.067z
			 M84.333,425.667c-9.387,0-17.067-7.68-17.067-17.067s7.68-17.067,17.067-17.067c4.249,0,8.139,1.584,11.135,4.178
			c0.247,0.324,0.512,0.642,0.812,0.942c0.342,0.342,0.685,0.64,1.034,0.913c2.541,2.982,4.086,6.833,4.086,11.034
			C101.4,417.987,93.72,425.667,84.333,425.667z M272.067,476.867c0,9.387-7.68,17.067-17.067,17.067s-17.067-7.68-17.067-17.067
			S245.613,459.8,255,459.8S272.067,467.48,272.067,476.867z M442.733,408.6c0,9.387-7.68,17.067-17.067,17.067
			S408.6,417.987,408.6,408.6c0-4.282,1.611-8.199,4.241-11.203c0.309-0.229,0.607-0.471,0.879-0.743
			c0.3-0.3,0.564-0.618,0.812-0.942c2.996-2.594,6.885-4.178,11.135-4.178C435.053,391.533,442.733,399.213,442.733,408.6z
			 M220.867,233.667L255,213.187l34.133,20.48v41.813L255,295.96l-34.133-20.48V233.667z M476.867,272.067
			c-9.387,0-17.067-7.68-17.067-17.067s7.68-17.067,17.067-17.067s17.067,7.68,17.067,17.067S486.253,272.067,476.867,272.067z"/>
	</g>
</g>
</svg>